<?xml version="1.0" encoding="utf-8"?>
<!-- Generator: Adobe Illustrator 18.1.1, SVG Export Plug-In . SVG Version: 6.00 Build 0)  -->
<svg version="1.1" xmlns="http://www.w3.org/2000/svg" xmlns:xlink="http://www.w3.org/1999/xlink" x="0px" y="0px"
	 viewBox="0 0 1000 800" enable-background="new 0 0 1000 800" xml:space="preserve">
<g id="makelogo">
	
		<rect id="square01a" x="60.4" y="269.9" transform="matrix(0.7071 -0.7071 0.7071 0.7071 -226.9541 251.6759)" fill="#35ADC4" width="259.8" height="259.8"/>
	
		<rect id="square01b" x="60.4" y="269.9" transform="matrix(0.7071 -0.7071 0.7071 0.7071 -226.9541 251.6759)" fill="#217586" width="259.8" height="259.8"/>
	
		<rect id="square01c" x="60.4" y="269.9" transform="matrix(0.7071 -0.7071 0.7071 0.7071 -226.9541 251.6759)" fill="#134A55" width="259.8" height="259.8"/>
	
		<rect id="square01d" x="60.4" y="269.9" transform="matrix(0.7071 -0.7071 0.7071 0.7071 -226.9541 251.6759)" fill="#052228" width="259.8" height="259.8"/>
	
		<rect id="square01_1_" x="60.4" y="269.9" transform="matrix(0.7071 -0.7071 0.7071 0.7071 -226.9541 251.6759)" fill="#010202" width="259.8" height="259.8"/>
	<path id="mask01" fill="#FFFFFF" d="M0,0v800h1000V0H0z M280.6,491.2H100V310.6h180.6V491.2z"/>
	<g id="c01">
		<circle id="circle01" fill="#35ADC4" cx="564.1" cy="400.2" r="32.4"/>
		<circle id="circle02" fill="#217586" cx="564.1" cy="400.2" r="32.4"/>
		<circle id="circle03" fill="#134A55" cx="564.1" cy="400.2" r="32.4"/>
		<circle id="circle04" fill="#052228" cx="564.1" cy="400.2" r="32.4"/>
		<circle id="circle05" fill="#010202" cx="564.1" cy="400.2" r="32.4"/>
	</g>
	<g id="c02">
		<circle id="circle01_1_" fill="#35ADC4" cx="671.8" cy="335.5" r="32.4"/>
		<circle id="circle02_1_" fill="#217586" cx="671.8" cy="335.5" r="32.4"/>
		<circle id="circle03_1_" fill="#134A55" cx="671.8" cy="335.5" r="32.4"/>
		<circle id="circle04_1_" fill="#052228" cx="671.8" cy="335.5" r="32.4"/>
		<circle id="circle05_1_" fill="#010202" cx="671.8" cy="335.5" r="32.4"/>
	</g>
	<g id="c03">
		<circle id="circle01_2_" fill="#35ADC4" cx="609.4" cy="412.6" r="32.4"/>
		<circle id="circle02_2_" fill="#217586" cx="609.4" cy="412.6" r="32.4"/>
		<circle id="circle03_2_" fill="#134A55" cx="609.4" cy="412.6" r="32.4"/>
		<circle id="circle04_2_" fill="#052228" cx="609.4" cy="412.6" r="32.4"/>
		<circle id="circle05_2_" fill="#010202" cx="609.4" cy="412.6" r="32.4"/>
	</g>
	<g id="c04">
		<circle id="circle01_3_" fill="#35ADC4" cx="624.8" cy="327.5" r="32.4"/>
		<circle id="circle02_3_" fill="#217586" cx="624.8" cy="327.5" r="32.4"/>
		<circle id="circle03_3_" fill="#134A55" cx="624.8" cy="327.5" r="32.4"/>
		<circle id="circle04_3_" fill="#052228" cx="624.8" cy="327.5" r="32.4"/>
		<circle id="circle05_3_" fill="#010202" cx="624.8" cy="327.5" r="32.4"/>
	</g>
	<g id="c05">
		<circle id="circle01_4_" fill="#35ADC4" cx="526.4" cy="424.5" r="32.4"/>
		<circle id="circle02_4_" fill="#217586" cx="526.4" cy="424.5" r="32.4"/>
		<circle id="circle03_4_" fill="#134A55" cx="526.4" cy="424.5" r="32.4"/>
		<circle id="circle04_4_" fill="#052228" cx="526.4" cy="424.5" r="32.4"/>
		<circle id="circle05_4_" fill="#010202" cx="526.4" cy="424.5" r="32.4"/>
	</g>
	<g id="c06">
		<circle id="circle01_5_" fill="#35ADC4" cx="532.4" cy="368" r="32.4"/>
		<circle id="circle02_5_" fill="#217586" cx="532.4" cy="368" r="32.4"/>
		<circle id="circle03_5_" fill="#134A55" cx="532.4" cy="368" r="32.4"/>
		<circle id="circle04_5_" fill="#052228" cx="532.4" cy="368" r="32.4"/>
		<circle id="circle05_5_" fill="#010202" cx="532.4" cy="368" r="32.4"/>
	</g>
	<g id="c07">
		<circle id="circle01_6_" fill="#35ADC4" cx="539.8" cy="473.2" r="32.4"/>
		<circle id="circle02_6_" fill="#217586" cx="539.8" cy="473.2" r="32.4"/>
		<circle id="circle03_6_" fill="#134A55" cx="539.8" cy="473.2" r="32.4"/>
		<circle id="circle04_6_" fill="#052228" cx="539.8" cy="473.2" r="32.4"/>
		<circle id="circle05_6_" fill="#010202" cx="539.8" cy="473.2" r="32.4"/>
	</g>
	<g id="c08">
		<circle id="circle01_7_" fill="#35ADC4" cx="581.8" cy="354.6" r="32.4"/>
		<circle id="circle02_7_" fill="#217586" cx="581.8" cy="354.6" r="32.4"/>
		<circle id="circle03_7_" fill="#134A55" cx="581.8" cy="354.6" r="32.4"/>
		<circle id="circle04_7_" fill="#052228" cx="581.8" cy="354.6" r="32.4"/>
		<circle id="circle05_7_" fill="#010202" cx="581.8" cy="354.6" r="32.4"/>
	</g>
	<g id="c09">
		<circle id="circle01_8_" fill="#35ADC4" cx="532.4" cy="324.7" r="32.4"/>
		<circle id="circle02_8_" fill="#217586" cx="532.4" cy="324.7" r="32.4"/>
		<circle id="circle03_8_" fill="#134A55" cx="532.4" cy="324.7" r="32.4"/>
		<circle id="circle04_8_" fill="#052228" cx="532.4" cy="324.7" r="32.4"/>
		<circle id="circle05_8_" fill="#010202" cx="532.4" cy="324.7" r="32.4"/>
	</g>
	<g id="c10">
		<circle id="circle01_9_" fill="#35ADC4" cx="578.1" cy="317.3" r="32.4"/>
		<circle id="circle02_9_" fill="#217586" cx="578.1" cy="317.3" r="32.4"/>
		<circle id="circle03_9_" fill="#134A55" cx="578.1" cy="317.3" r="32.4"/>
		<circle id="circle04_9_" fill="#052228" cx="578.1" cy="317.3" r="32.4"/>
		<circle id="circle05_9_" fill="#010202" cx="578.1" cy="317.3" r="32.4"/>
	</g>
	<g id="c11">
		<circle id="circle01_10_" fill="#35ADC4" cx="632.8" cy="378.2" r="32.4"/>
		<circle id="circle02_10_" fill="#217586" cx="632.8" cy="378.2" r="32.4"/>
		<circle id="circle03_10_" fill="#134A55" cx="632.8" cy="378.2" r="32.4"/>
		<circle id="circle04_10_" fill="#052228" cx="632.8" cy="378.2" r="32.4"/>
		<circle id="circle05_10_" fill="#010202" cx="632.8" cy="378.2" r="32.4"/>
	</g>
	<g id="c12">
		<circle id="circle01_11_" fill="#35ADC4" cx="670.8" cy="423.5" r="32.4"/>
		<circle id="circle02_11_" fill="#217586" cx="670.8" cy="423.5" r="32.4"/>
		<circle id="circle03_11_" fill="#134A55" cx="670.8" cy="423.5" r="32.4"/>
		<circle id="circle04_11_" fill="#052228" cx="670.8" cy="423.5" r="32.4"/>
		<circle id="circle05_11_" fill="#010202" cx="670.8" cy="423.5" r="32.4"/>
	</g>
	<g id="c13">
		<circle id="circle01_12_" fill="#35ADC4" cx="691.1" cy="381.1" r="32.4"/>
		<circle id="circle02_12_" fill="#217586" cx="691.1" cy="381.1" r="32.4"/>
		<circle id="circle03_12_" fill="#134A55" cx="691.1" cy="381.1" r="32.4"/>
		<circle id="circle04_12_" fill="#052228" cx="691.1" cy="381.1" r="32.4"/>
		<circle id="circle05_12_" fill="#010202" cx="691.1" cy="381.1" r="32.4"/>
	</g>
	<g id="c14">
		<circle id="circle01_13_" fill="#35ADC4" cx="581.8" cy="450.7" r="32.4"/>
		<circle id="circle02_13_" fill="#217586" cx="581.8" cy="450.7" r="32.4"/>
		<circle id="circle03_13_" fill="#134A55" cx="581.8" cy="450.7" r="32.4"/>
		<circle id="circle04_13_" fill="#052228" cx="581.8" cy="450.7" r="32.4"/>
		<circle id="circle05_13_" fill="#010202" cx="581.8" cy="450.7" r="32.4"/>
	</g>
	<g id="c15">
		<circle id="circle01_14_" fill="#35ADC4" cx="632.8" cy="445" r="32.4"/>
		<circle id="circle02_14_" fill="#217586" cx="632.8" cy="445" r="32.4"/>
		<circle id="circle03_14_" fill="#134A55" cx="632.8" cy="445" r="32.4"/>
		<circle id="circle04_14_" fill="#052228" cx="632.8" cy="445" r="32.4"/>
		<circle id="circle05_14_" fill="#010202" cx="632.8" cy="445" r="32.4"/>
	</g>
	<g id="c16">
		<circle id="circle01_15_" fill="#35ADC4" cx="683.7" cy="464.9" r="32.4"/>
		<circle id="circle02_15_" fill="#217586" cx="683.7" cy="464.9" r="32.4"/>
		<circle id="circle03_15_" fill="#134A55" cx="683.7" cy="464.9" r="32.4"/>
		<circle id="circle04_15_" fill="#052228" cx="683.7" cy="464.9" r="32.4"/>
		<circle id="circle05_15_" fill="#010202" cx="683.7" cy="464.9" r="32.4"/>
	</g>
	<g id="c17">
		<circle id="circle01_16_" fill="#35ADC4" cx="589" cy="490.3" r="32.4"/>
		<circle id="circle02_16_" fill="#217586" cx="589" cy="490.3" r="32.4"/>
		<circle id="circle03_16_" fill="#134A55" cx="589" cy="490.3" r="32.4"/>
		<circle id="circle04_16_" fill="#052228" cx="589" cy="490.3" r="32.4"/>
		<circle id="circle05_16_" fill="#010202" cx="589" cy="490.3" r="32.4"/>
	</g>
	<g id="c18">
		<circle id="circle01_17_" fill="#35ADC4" cx="638.4" cy="490.3" r="32.4"/>
		<circle id="circle02_17_" fill="#217586" cx="638.4" cy="490.3" r="32.4"/>
		<circle id="circle03_17_" fill="#134A55" cx="638.4" cy="490.3" r="32.4"/>
		<circle id="circle04_17_" fill="#052228" cx="638.4" cy="490.3" r="32.4"/>
		<circle id="circle05_17_" fill="#010202" cx="638.4" cy="490.3" r="32.4"/>
	</g>
	<rect id="square03_1_" x="512.9" y="309.7" fill="#010202" width="180.6" height="180.6"/>
	<path id="mask03" fill="#FFFFFF" d="M293,0v800h707V0H293z M693.5,490.3H512.9V309.7h180.6V490.3z"/>
	<g id="hlines">
		<rect id="h04" x="512.9" y="103.2" fill="#04A3BD" width="180.6" height="25.8"/>
		<rect id="h03" x="512.9" y="154.8" fill="#04A3BD" width="180.6" height="25.8"/>
		<rect id="h02" x="512.9" y="206.5" fill="#04A3BD" width="180.6" height="25.8"/>
		<rect id="h01" x="512.9" y="258.1" fill="#04A3BD" width="180.6" height="25.8"/>
	</g>
	<g id="vlines">
		<rect id="v04" x="306.5" y="516.1" fill="#010202" width="25.8" height="180.6"/>
		<rect id="v03" x="358.1" y="516.1" fill="#010202" width="25.8" height="180.6"/>
		<rect id="v02" x="409.7" y="516.1" fill="#010202" width="25.8" height="180.6"/>
		<rect id="v01" x="461.3" y="516.1" fill="#010202" width="25.8" height="180.6"/>
	</g>
	<rect id="square04" x="719.4" y="309.7" fill="#010202" width="180.6" height="180.6"/>
	<g id="square04a">
		<rect id="square04aback" x="719.4" y="454.1" fill="#010202" width="180.6" height="36.2"/>
		<rect id="square04aleft_1_" x="719.4" y="454.1" fill="#35ADC4" width="180.6" height="36.2"/>
		<rect id="square04afront" x="719.4" y="454.1" fill="#010202" width="180.6" height="36.2"/>
	</g>
	<rect id="square04b" x="719.4" y="418.3" fill="#010202" width="180.6" height="36.2"/>
	<rect id="square04c" x="719.4" y="382.1" fill="#010202" width="180.6" height="36.2"/>
	<rect id="square04d" x="719.4" y="345.9" fill="#010202" width="180.6" height="36.2"/>
	<rect id="square04e" x="719.4" y="309.7" fill="#010202" width="180.6" height="36.2"/>
	<path id="e" fill="#FFFFFF" d="M774.2,445.2v-90.3h70.3v19.7h-44.7v14.1h39.7v19.1h-39.7v17.7h45.4v19.8H774.2z"/>
	<path id="k" fill="#FFFFFF" d="M616.2,445.2l-25.7-36.3l-5.5,4.4v32h-27v-90.3h27v30.1l26.7-30.1h32.6L609,392.1l39.4,53.1H616.2z"
		/>
	<rect id="square02a" x="306.5" y="309.7" fill="#35ADC4" width="180.6" height="180.6"/>
	<rect id="square02b" x="306.5" y="309.7" fill="#217586" width="180.6" height="180.6"/>
	<rect id="square02c" x="306.5" y="309.7" fill="#134A55" width="180.6" height="180.6"/>
	<rect id="square02d" x="306.5" y="309.7" fill="#052228" width="180.6" height="180.6"/>
	<rect id="square02" x="306.5" y="309.7" fill="#010202" width="180.6" height="180.6"/>
	<path id="a" fill="#FFFFFF" d="M416,445.2l-4.8-16.9h-29l-4.7,16.9h-25.9l31.5-90.3h27.8l31.1,90.3H416z M396.7,377.6l-9,31.3h18
		L396.7,377.6z"/>
	<polygon id="m" fill="#FFFFFF" points="211.4,354.6 207.7,354.6 207.3,354.6 204.7,365 190.2,415.2 173.3,355.8 173,354.6 
		173,354.6 169.2,354.6 145.2,354.6 145.2,354.6 145.2,445 145.2,445 163.7,445 169.2,445 169.2,403.1 180.4,445 200.5,445 
		211.4,403.5 211.4,445 217.1,445 235.5,445 235.5,354.6 	"/>
</g>
<g id="open" display="none">
	
		<rect id="rect01" x="-406.1" y="112.9" transform="matrix(0.7608 -0.649 0.649 0.7608 -193.1559 17.526)" display="inline" fill="#010202" width="666.5" height="315.7"/>
	
		<rect id="rect02" x="-201.2" y="353.1" transform="matrix(0.7608 -0.649 0.649 0.7608 -300.0215 207.9546)" display="inline" fill="#010202" width="666.5" height="315.7"/>
	
		<rect id="rect03" x="3.7" y="593.3" transform="matrix(0.7608 -0.649 0.649 0.7608 -406.887 398.3832)" display="inline" fill="#010202" width="666.5" height="315.7"/>
	
		<rect id="rect04" x="208.6" y="833.5" transform="matrix(0.7608 -0.649 0.649 0.7608 -513.7525 588.8118)" display="inline" fill="#010202" width="666.5" height="315.7"/>
	
		<rect id="rect05" x="101" y="-319.7" transform="matrix(0.7608 -0.649 0.649 0.7608 208.8984 243.1524)" display="inline" fill="#010202" width="666.5" height="315.7"/>
	
		<rect id="rect06" x="305.9" y="-79.5" transform="matrix(0.7608 -0.649 0.649 0.7608 102.0329 433.581)" display="inline" fill="#010202" width="666.5" height="315.7"/>
	
		<rect id="rect07" x="510.8" y="160.7" transform="matrix(0.7608 -0.649 0.649 0.7608 -4.8326 624.0096)" display="inline" fill="#010202" width="666.5" height="315.7"/>
	
		<rect id="rect08" x="715.7" y="400.9" transform="matrix(0.7608 -0.649 0.649 0.7608 -111.6981 814.4382)" display="inline" fill="#010202" width="666.5" height="315.7"/>
</g>
</svg>
